{
  "accessors": [
    {
      "bufferView": 1,
      "componentType": 5123,
      "type": "SCALAR",
      "count": 1218
    },
    {
      "bufferView": 2,
      "componentType": 5126,
      "type": "VEC3",
      "count": 812,
      "min": [0, 9, 0],
      "max": [10, 16, 14]
    },
    {
      "bufferView": 2,
      "componentType": 5126,
      "type": "VEC3",
      "byteOffset": 12,
      "count": 812
    },
    {
      "bufferView": 2,
      "componentType": 5126,
      "type": "VEC2",
      "byteOffset": 24,
      "count": 812
    },
    {
      "bufferView": 3,
      "componentType": 5123,
      "type": "SCALAR",
      "count": 1884
    },
    {
      "bufferView": 4,
      "componentType": 5126,
      "type": "VEC3",
      "count": 1256,
      "min": [0, 0, 0],
      "max": [10, 11, 16]
    },
    {
      "bufferView": 4,
      "componentType": 5126,
      "type": "VEC3",
      "byteOffset": 12,
      "count": 1256
    },
    {
      "bufferView": 4,
      "componentType": 5126,
      "type": "VEC2",
      "byteOffset": 24,
      "count": 1256
    },
    {
      "bufferView": 5,
      "componentType": 5123,
      "type": "SCALAR",
      "count": 1272
    },
    {
      "bufferView": 6,
      "componentType": 5126,
      "type": "VEC3",
      "count": 848,
      "min": [7, 9, 0],
      "max": [16, 16, 16]
    },
    {
      "bufferView": 6,
      "componentType": 5126,
      "type": "VEC3",
      "byteOffset": 12,
      "count": 848
    },
    {
      "bufferView": 6,
      "componentType": 5126,
      "type": "VEC2",
      "byteOffset": 24,
      "count": 848
    },
    {
      "bufferView": 7,
      "componentType": 5123,
      "type": "SCALAR",
      "count": 1776
    },
    {
      "bufferView": 8,
      "componentType": 5126,
      "type": "VEC3",
      "count": 1184,
      "min": [4, 0, 0],
      "max": [16, 10, 16]
    },
    {
      "bufferView": 8,
      "componentType": 5126,
      "type": "VEC3",
      "byteOffset": 12,
      "count": 1184
    },
    {
      "bufferView": 8,
      "componentType": 5126,
      "type": "VEC2",
      "byteOffset": 24,
      "count": 1184
    },
    {
      "bufferView": 9,
      "componentType": 5123,
      "type": "SCALAR",
      "count": 60
    },
    {
      "bufferView": 10,
      "componentType": 5126,
      "type": "VEC3",
      "count": 40,
      "min": [0, 0, 0],
      "max": [3, 2, 1]
    },
    {
      "bufferView": 10,
      "componentType": 5126,
      "type": "VEC3",
      "byteOffset": 12,
      "count": 40
    },
    {
      "bufferView": 10,
      "componentType": 5126,
      "type": "VEC2",
      "byteOffset": 24,
      "count": 40
    },
    {
      "bufferView": 11,
      "componentType": 5123,
      "type": "SCALAR",
      "count": 246
    },
    {
      "bufferView": 12,
      "componentType": 5126,
      "type": "VEC3",
      "count": 164,
      "min": [14, 0, 0],
      "max": [16, 3, 5]
    },
    {
      "bufferView": 12,
      "componentType": 5126,
      "type": "VEC3",
      "byteOffset": 12,
      "count": 164
    },
    {
      "bufferView": 12,
      "componentType": 5126,
      "type": "VEC2",
      "byteOffset": 24,
      "count": 164
    },
    {
      "bufferView": 13,
      "componentType": 5123,
      "type": "SCALAR",
      "count": 120
    },
    {
      "bufferView": 14,
      "componentType": 5126,
      "type": "VEC3",
      "count": 80,
      "min": [14, 12, 0],
      "max": [16, 16, 2]
    },
    {
      "bufferView": 14,
      "componentType": 5126,
      "type": "VEC3",
      "byteOffset": 12,
      "count": 80
    },
    {
      "bufferView": 14,
      "componentType": 5126,
      "type": "VEC2",
      "byteOffset": 24,
      "count": 80
    },
    {
      "bufferView": 15,
      "componentType": 5123,
      "type": "SCALAR",
      "count": 60
    },
    {
      "bufferView": 16,
      "componentType": 5126,
      "type": "VEC3",
      "count": 40,
      "min": [0, 14, 0],
      "max": [2, 16, 1]
    },
    {
      "bufferView": 16,
      "componentType": 5126,
      "type": "VEC3",
      "byteOffset": 12,
      "count": 40
    },
    {
      "bufferView": 16,
      "componentType": 5126,
      "type": "VEC2",
      "byteOffset": 24,
      "count": 40
    },
    {
      "bufferView": 17,
      "componentType": 5123,
      "type": "SCALAR",
      "count": 606
    },
    {
      "bufferView": 18,
      "componentType": 5126,
      "type": "VEC3",
      "count": 404,
      "min": [3, 6, 15],
      "max": [12, 15, 16]
    },
    {
      "bufferView": 18,
      "componentType": 5126,
      "type": "VEC3",
      "byteOffset": 12,
      "count": 404
    },
    {
      "bufferView": 18,
      "componentType": 5126,
      "type": "VEC2",
      "byteOffset": 24,
      "count": 404
    },
    {
      "bufferView": 19,
      "componentType": 5123,
      "type": "SCALAR",
      "count": 606
    },
    {
      "bufferView": 20,
      "componentType": 5126,
      "type": "VEC3",
      "count": 404,
      "min": [3, 1, 15],
      "max": [12, 10, 16]
    },
    {
      "bufferView": 20,
      "componentType": 5126,
      "type": "VEC3",
      "byteOffset": 12,
      "count": 404
    },
    {
      "bufferView": 20,
      "componentType": 5126,
      "type": "VEC2",
      "byteOffset": 24,
      "count": 404
    },
    {
      "bufferView": 21,
      "componentType": 5123,
      "type": "SCALAR",
      "count": 4974
    },
    {
      "bufferView": 22,
      "componentType": 5126,
      "type": "VEC3",
      "count": 3316,
      "min": [0, 0, 0],
      "max": [16, 14, 14]
    },
    {
      "bufferView": 22,
      "componentType": 5126,
      "type": "VEC3",
      "byteOffset": 12,
      "count": 3316
    },
    {
      "bufferView": 22,
      "componentType": 5126,
      "type": "VEC2",
      "byteOffset": 24,
      "count": 3316
    },
    {
      "bufferView": 23,
      "componentType": 5123,
      "type": "SCALAR",
      "count": 3300
    },
    {
      "bufferView": 24,
      "componentType": 5126,
      "type": "VEC3",
      "count": 2200,
      "min": [5, 0, 1],
      "max": [16, 14, 14]
    },
    {
      "bufferView": 24,
      "componentType": 5126,
      "type": "VEC3",
      "byteOffset": 12,
      "count": 2200
    },
    {
      "bufferView": 24,
      "componentType": 5126,
      "type": "VEC2",
      "byteOffset": 24,
      "count": 2200
    },
    {
      "bufferView": 25,
      "componentType": 5123,
      "type": "SCALAR",
      "count": 3498
    },
    {
      "bufferView": 26,
      "componentType": 5126,
      "type": "VEC3",
      "count": 2332,
      "min": [2, 6, 1],
      "max": [16, 16, 13]
    },
    {
      "bufferView": 26,
      "componentType": 5126,
      "type": "VEC3",
      "byteOffset": 12,
      "count": 2332
    },
    {
      "bufferView": 26,
      "componentType": 5126,
      "type": "VEC2",
      "byteOffset": 24,
      "count": 2332
    },
    {
      "bufferView": 27,
      "componentType": 5123,
      "type": "SCALAR",
      "count": 5064
    },
    {
      "bufferView": 28,
      "componentType": 5126,
      "type": "VEC3",
      "count": 3376,
      "min": [0, 3, 0],
      "max": [16, 16, 14]
    },
    {
      "bufferView": 28,
      "componentType": 5126,
      "type": "VEC3",
      "byteOffset": 12,
      "count": 3376
    },
    {
      "bufferView": 28,
      "componentType": 5126,
      "type": "VEC2",
      "byteOffset": 24,
      "count": 3376
    }
  ],
  "asset": {
    "generator": "goxel",
    "version": "2.0"
  },
  "bufferViews": [
    {
      "buffer": 0,
      "byteLength": 96
    },
    {
      "buffer": 2,
      "byteLength": 2436
    },
    {
      "buffer": 1,
      "byteLength": 25984,
      "byteStride": 32
    },
    {
      "buffer": 4,
      "byteLength": 3768
    },
    {
      "buffer": 3,
      "byteLength": 40192,
      "byteStride": 32
    },
    {
      "buffer": 6,
      "byteLength": 2544
    },
    {
      "buffer": 5,
      "byteLength": 27136,
      "byteStride": 32
    },
    {
      "buffer": 8,
      "byteLength": 3552
    },
    {
      "buffer": 7,
      "byteLength": 37888,
      "byteStride": 32
    },
    {
      "buffer": 10,
      "byteLength": 120
    },
    {
      "buffer": 9,
      "byteLength": 1280,
      "byteStride": 32
    },
    {
      "buffer": 12,
      "byteLength": 492
    },
    {
      "buffer": 11,
      "byteLength": 5248,
      "byteStride": 32
    },
    {
      "buffer": 14,
      "byteLength": 240
    },
    {
      "buffer": 13,
      "byteLength": 2560,
      "byteStride": 32
    },
    {
      "buffer": 16,
      "byteLength": 120
    },
    {
      "buffer": 15,
      "byteLength": 1280,
      "byteStride": 32
    },
    {
      "buffer": 18,
      "byteLength": 1212
    },
    {
      "buffer": 17,
      "byteLength": 12928,
      "byteStride": 32
    },
    {
      "buffer": 20,
      "byteLength": 1212
    },
    {
      "buffer": 19,
      "byteLength": 12928,
      "byteStride": 32
    },
    {
      "buffer": 22,
      "byteLength": 9948
    },
    {
      "buffer": 21,
      "byteLength": 106112,
      "byteStride": 32
    },
    {
      "buffer": 24,
      "byteLength": 6600
    },
    {
      "buffer": 23,
      "byteLength": 70400,
      "byteStride": 32
    },
    {
      "buffer": 26,
      "byteLength": 6996
    },
    {
      "buffer": 25,
      "byteLength": 74624,
      "byteStride": 32
    },
    {
      "buffer": 28,
      "byteLength": 10128
    },
    {
      "buffer": 27,
      "byteLength": 108032,
      "byteStride": 32
    }
  ],
  "buffers": [
    {
      "uri": "data:application/octet-stream;base64,",
      "byteLength": 96
    },
    {
      "uri": "data:application/octet-stream;base64,",
      "byteLength": 25984
    },
    {
      "uri": "data:application/octet-stream;base64,",
      "byteLength": 2436
    },
    {
      "uri": "data:application/octet-stream;base64,",
      "byteLength": 40192
    },
    {
      "uri": "data:application/octet-stream;base64,",
      "byteLength": 3768
    },
    {
      "uri": "data:application/octet-stream;base64,",
      "byteLength": 27136
    },
    {
      "uri": "data:application/octet-stream;base64,",
      "byteLength": 2544
    },
    {
      "uri": "data:application/octet-stream;base64,",
      "byteLength": 37888
    },
    {
      "uri": "data:application/octet-stream;base64,",
      "byteLength": 3552
    },
    {
      "uri": "data:application/octet-stream;base64,",
      "byteLength": 1280
    },
    {
      "uri": "data:application/octet-stream;base64,",
      "byteLength": 120
    },
    {
      "uri": "data:application/octet-stream;base64,",
      "byteLength": 5248
    },
    {
      "uri": "data:application/octet-stream;base64,",
      "byteLength": 492
    },
    {
      "uri": "data:application/octet-stream;base64,",
      "byteLength": 2560
    },
    {
      "uri": "data:application/octet-stream;base64,",
      "byteLength": 240
    },
    {
      "uri": "data:application/octet-stream;base64,",
      "byteLength": 1280
    },
    {
      "uri": "data:application/octet-stream;base64,",
      "byteLength": 120
    },
    {
      "uri": "data:application/octet-stream;base64,",
      "byteLength": 12928
    },
    {
      "uri": "data:application/octet-stream;base64,",
      "byteLength": 1212
    },
    {
      "uri": "data:application/octet-stream;base64,",
      "byteLength": 12928
    },
    {
      "uri": "data:application/octet-stream;base64,",
      "byteLength": 1212
    },
    {
      "uri": "data:application/octet-stream;base64,",
      "byteLength": 106112
    },
    {
      "uri": "data:application/octet-stream;base64,",
      "byteLength": 9948
    },
    {
      "uri": "data:application/octet-stream;base64,",
      "byteLength": 70400
    },
    {
      "uri": "data:application/octet-stream;base64,",
      "byteLength": 6600
    },
    {
      "uri": "data:application/octet-stream;base64,",
      "byteLength": 74624
    },
    {
      "uri": "data:application/octet-stream;base64,",
      "byteLength": 6996
    },
    {
      "uri": "data:application/octet-stream;base64,",
      "byteLength": 108032
    },
    {
      "uri": "data:application/octet-stream;base64,",
      "byteLength": 10128
    }
  ],
  "images": [
    {
      "bufferView": 0,
      "mimeType": "image/png"
    }
  ],
  "meshes": [
    {
      "primitives": [
        {
          "indices": 0,
          "material": 1,
          "attributes": {
            "POSITION": 1,
            "NORMAL": 2,
            "TEXCOORD_0": 3
          }
        }
      ]
    },
    {
      "primitives": [
        {
          "indices": 4,
          "material": 1,
          "attributes": {
            "POSITION": 5,
            "NORMAL": 6,
            "TEXCOORD_0": 7
          }
        }
      ]
    },
    {
      "primitives": [
        {
          "indices": 8,
          "material": 1,
          "attributes": {
            "POSITION": 9,
            "NORMAL": 10,
            "TEXCOORD_0": 11
          }
        }
      ]
    },
    {
      "primitives": [
        {
          "indices": 12,
          "material": 1,
          "attributes": {
            "POSITION": 13,
            "NORMAL": 14,
            "TEXCOORD_0": 15
          }
        }
      ]
    },
    {
      "primitives": [
        {
          "indices": 16,
          "material": 1,
          "attributes": {
            "POSITION": 17,
            "NORMAL": 18,
            "TEXCOORD_0": 19
          }
        }
      ]
    },
    {
      "primitives": [
        {
          "indices": 20,
          "material": 1,
          "attributes": {
            "POSITION": 21,
            "NORMAL": 22,
            "TEXCOORD_0": 23
          }
        }
      ]
    },
    {
      "primitives": [
        {
          "indices": 24,
          "material": 1,
          "attributes": {
            "POSITION": 25,
            "NORMAL": 26,
            "TEXCOORD_0": 27
          }
        }
      ]
    },
    {
      "primitives": [
        {
          "indices": 28,
          "material": 1,
          "attributes": {
            "POSITION": 29,
            "NORMAL": 30,
            "TEXCOORD_0": 31
          }
        }
      ]
    },
    {
      "primitives": [
        {
          "indices": 32,
          "material": 0,
          "attributes": {
            "POSITION": 33,
            "NORMAL": 34,
            "TEXCOORD_0": 35
          }
        }
      ]
    },
    {
      "primitives": [
        {
          "indices": 36,
          "material": 0,
          "attributes": {
            "POSITION": 37,
            "NORMAL": 38,
            "TEXCOORD_0": 39
          }
        }
      ]
    },
    {
      "primitives": [
        {
          "indices": 40,
          "material": 0,
          "attributes": {
            "POSITION": 41,
            "NORMAL": 42,
            "TEXCOORD_0": 43
          }
        }
      ]
    },
    {
      "primitives": [
        {
          "indices": 44,
          "material": 0,
          "attributes": {
            "POSITION": 45,
            "NORMAL": 46,
            "TEXCOORD_0": 47
          }
        }
      ]
    },
    {
      "primitives": [
        {
          "indices": 48,
          "material": 0,
          "attributes": {
            "POSITION": 49,
            "NORMAL": 50,
            "TEXCOORD_0": 51
          }
        }
      ]
    },
    {
      "primitives": [
        {
          "indices": 52,
          "material": 0,
          "attributes": {
            "POSITION": 53,
            "NORMAL": 54,
            "TEXCOORD_0": 55
          }
        }
      ]
    }
  ],
  "materials": [
    {
      "name": "Leaves",
      "pbrMetallicRoughness": {
        "baseColorTexture": {
          "index": 0
        },
        "metallicFactor": 0.399999917,
        "roughnessFactor": 0.5,
        "baseColorFactor": [0.745098054, 0.70588237, 0.349019617, 1]
      }
    },
    {
      "name": "Wood",
      "pbrMetallicRoughness": {
        "baseColorTexture": {
          "index": 0
        },
        "metallicFactor": 0.5,
        "roughnessFactor": 0.800000072,
        "baseColorFactor": [0.745098054, 0.43921569, 0.372549027, 1]
      }
    }
  ],
  "nodes": [
    {
      "children": [ 9, 16 ],
      "matrix": [1, 0, 0, 0, 0, 0, -1, 0, 0, 1, 0, 0, 0, 0, 0, 1]
    },
    {
      "mesh": 0,
      "translation": [0, -16, 0]
    },
    {
      "mesh": 1,
      "translation": [0, 0, 0]
    },
    {
      "mesh": 2,
      "translation": [-16, -16, 0]
    },
    {
      "mesh": 3,
      "translation": [-16, 0, 0]
    },
    {
      "mesh": 4,
      "translation": [0, 0, 16]
    },
    {
      "mesh": 5,
      "translation": [-16, 0, 16]
    },
    {
      "mesh": 6,
      "translation": [-16, -16, 16]
    },
    {
      "mesh": 7,
      "translation": [0, -16, 16]
    },
    {
      "children": [ 1, 2, 3, 4, 5, 6, 7, 8 ]
    },
    {
      "mesh": 8,
      "translation": [0, -16, 0]
    },
    {
      "mesh": 9,
      "translation": [0, 0, 0]
    },
    {
      "mesh": 10,
      "translation": [0, 0, 16]
    },
    {
      "mesh": 11,
      "translation": [-16, 0, 16]
    },
    {
      "mesh": 12,
      "translation": [-16, -16, 16]
    },
    {
      "mesh": 13,
      "translation": [0, -16, 16]
    },
    {
      "children": [ 10, 11, 12, 13, 14, 15 ]
    }
  ],
  "scenes": [
    {
      "nodes": [ 0 ]
    }
  ],
  "textures": [
    {
      "source": 0
    }
  ]
}
